# xmcd CD database file
#
# Track frame offsets:
#	150
#	5425
#	17486
#	34723
#	44565
#	54992
#	80143
#	94358
#	105806
#	120878
#	136333
#	145668
#	165880
#	179921
#	189982
#	198809
#	207782
#	220900
#	233345
#	237606
#	242087
#	263946
#	283420
#	288324
#
# Disc length: 4050 seconds
#
# Revision: 0
# Processed by: cddbd v1.5.2PL0 Copyright (c) Steve Scherf et al.
# Submitted via: CDex 1.51
#
DISCID=4c0fd018
DTITLE=Pater Brown 14 - Das Verhängnis der Darnaways
DYEAR=2008
DGENRE=Hörspiel
TTITLE0=Pater Brown 14 - Das Verhängnis der Darnaways
TTITLE1=Pater Brown 14 - Das Verhängnis der Darnaways
TTITLE2=Pater Brown 14 - Das Verhängnis der Darnaways
TTITLE3=Pater Brown 14 - Das Verhängnis der Darnaways
TTITLE4=Pater Brown 14 - Das Verhängnis der Darnaways
TTITLE5=Pater Brown 14 - Das Verhängnis der Darnaways
TTITLE6=Pater Brown 14 - Das Verhängnis der Darnaways
TTITLE7=Pater Brown 14 - Das Verhängnis der Darnaways
TTITLE8=Pater Brown 14 - Das Verhängnis der Darnaways
TTITLE9=Pater Brown 14 - Das Verhängnis der Darnaways
TTITLE10=Pater Brown 14 - Das Verhängnis der Darnaways
TTITLE11=Pater Brown 14 - Das Verhängnis der Darnaways
TTITLE12=Pater Brown 14 - Das Verhängnis der Darnaways
TTITLE13=Pater Brown 14 - Das Verhängnis der Darnaways
TTITLE14=Pater Brown 14 - Das Verhängnis der Darnaways
TTITLE15=Pater Brown 14 - Das Verhängnis der Darnaways
TTITLE16=Pater Brown 14 - Das Verhängnis der Darnaways
TTITLE17=Pater Brown 14 - Das Verhängnis der Darnaways
TTITLE18=Pater Brown 14 - Das Verhängnis der Darnaways
TTITLE19=Pater Brown 14 - Das Verhängnis der Darnaways
TTITLE20=Pater Brown 14 - Das Verhängnis der Darnaways
TTITLE21=Pater Brown 14 - Das Verhängnis der Darnaways
TTITLE22=Pater Brown 14 - Das Verhängnis der Darnaways
TTITLE23=Pater Brown 14 - Das Verhängnis der Darnaways
EXTD=YEAR: 2008
EXTT0=
EXTT1=
EXTT2=
EXTT3=
EXTT4=
EXTT5=
EXTT6=
EXTT7=
EXTT8=
EXTT9=
EXTT10=
EXTT11=
EXTT12=
EXTT13=
EXTT14=
EXTT15=
EXTT16=
EXTT17=
EXTT18=
EXTT19=
EXTT20=
EXTT21=
EXTT22=
EXTT23=
PLAYORDER=
